<svg id="Layer_1" data-name="Layer 1" xmlns="http://www.w3.org/2000/svg" viewBox="0 0 411.45 462.12"><defs><style>.cls-1{fill:#fff;}</style></defs><title>logowhite</title><path class="cls-1" d="M489.38,705.21a3.5,3.5,0,0,1-3.41-2.72A224.49,224.49,0,0,0,456.36,633c-26.16-40.74-62.66-68.58-108.47-82.77a239,239,0,0,0-52-9.74,3.5,3.5,0,0,1-3.13-4.3c6.06-25.4,17.77-49.64,34.81-72,19.69-25.89,45.74-48.44,77.44-67a3.5,3.5,0,0,1,3.54,6c-30.9,18.13-56.27,40.07-75.41,65.23-15.56,20.46-26.51,42.47-32.58,65.48A244.14,244.14,0,0,1,350,543.56c47.43,14.69,85.2,43.52,112.28,85.68A233.7,233.7,0,0,1,491.58,696a63.13,63.13,0,0,0,17-20.12c11-20.75,9.52-45.84-4.5-74.55-1.1-2.25-2.25-4.49-3.36-6.66-3.37-6.56-6.85-13.34-9.57-21.68a128.9,128.9,0,0,1-3.72-15.65c-1.33-8.25-2.78-31.2,12.39-66.16a3.5,3.5,0,1,1,6.42,2.79c-3.75,8.65-15.7,38.68-11.9,62.25a123.8,123.8,0,0,0,3.47,14.64c2.53,7.76,5.74,14,9.13,20.61,1.13,2.2,2.3,4.47,3.43,6.78,10.41,21.32,19.58,52.71,4.21,81.24a66.92,66.92,0,0,1-23.52,25.31A3.5,3.5,0,0,1,489.38,705.21Z" transform="translate(-292.63 -243.09)"/><path class="cls-1" d="M627.18,524.48a32.3,32.3,0,0,1-10-1.53c-10.46-3.38-18.67-12.2-24.38-26.2-1.76-4.31-5.91-7.69-11.11-9L558,481.54a21.33,21.33,0,0,0-9.06-.32c-5.24.94-33.35.5-48.86-6.28-18.82-8.21-30.63-30.4-30.1-56.52a3.5,3.5,0,0,1,7,.14c-.48,23.28,9.69,42.89,25.9,50,14.36,6.27,41.32,6.42,44.83,5.8a28.39,28.39,0,0,1,12.06.44l23.73,6.17c7.32,1.9,13.24,6.83,15.82,13.17,4.9,12,11.65,19.47,20.05,22.19,12.07,3.9,25.24-2.62,32-6.85a26.84,26.84,0,0,1,14.11-4,54,54,0,0,0,20.71-4.21,15.12,15.12,0,0,0,8.27-8.07c11-27.7-15.63-46.28-24-51.32a23,23,0,0,1-4.82-3.84L547.47,314.44a19.75,19.75,0,0,1-5.05-9.52c-7.21-33.71-23.54-56-33.71-54.79-3.05.34-5.4,4.65-9.29,12.24-5.26,10.26-13.21,25.76-31.2,40.91a130.67,130.67,0,0,1-27.14,17.35l-2.42,1.23c-31.12,16.09-64,47.13-97.78,92.25a3.5,3.5,0,1,1-5.6-4.19c34.4-46,68.1-77.7,100.17-94.28l2.47-1.26a124.5,124.5,0,0,0,25.8-16.46c16.91-14.24,24.18-28.41,29.48-38.75,4.53-8.84,7.81-15.23,14.74-16,17.38-1.95,34.67,29.12,41.33,60.29a12.76,12.76,0,0,0,3.27,6.14L670.65,433.17a16,16,0,0,0,3.35,2.67c5,3,14.4,9.44,21.45,19.19,9.15,12.65,11.05,26.73,5.51,40.72a22.15,22.15,0,0,1-12,11.94,61.1,61.1,0,0,1-23.41,4.77,20.13,20.13,0,0,0-10.44,2.92C649,519.15,638.48,524.48,627.18,524.48Z" transform="translate(-292.63 -243.09)"/></svg>